<svg xmlns="http://www.w3.org/2000/svg" xmlns:xlink="http://www.w3.org/1999/xlink" fill="none" version="1.1" width="28" height="28" viewBox="0 0 28 28"><g><g><path d="" fill="#FFFFFF" fill-opacity="0"/></g><g><path d="M4.666666507720947,11.348373253860474Q4.666666507720947,9.514963253860474,5.400573507720948,7.838983253860474Q6.109096507720947,6.220973253860474,7.400326507720948,4.9737732538604735Q8.691566507720946,3.7265732538604737,10.366706507720949,3.0422122538604737Q12.101866507720947,2.3333332538604736,13.999996507720947,2.3333332538604736Q15.898166507720948,2.3333332538604736,17.633266507720947,3.0422122538604737Q19.308466507720947,3.7265732538604737,20.599666507720947,4.9737732538604735Q21.890866507720947,6.220973253860474,22.599466507720948,7.838983253860474Q23.333366507720946,9.514963253860474,23.333366507720946,11.348373253860474Q23.333366507720946,13.181733253860473,22.599466507720948,14.857733253860474Q21.890866507720947,16.475733253860476,20.599666507720947,17.722933253860475Q19.368466507720946,18.912233253860474,17.788166507720945,19.589733253860473L19.178966507720947,23.545233253860474L20.588266507720945,23.545233253860474C21.194666507720946,23.545233253860474,21.686266507720948,24.020133253860475,21.686266507720948,24.605833253860474C21.686266507720948,25.191633253860473,21.194666507720946,25.666433253860475,20.588266507720945,25.666433253860475L7.411766507720947,25.666433253860475C6.805336507720947,25.666433253860475,6.313726507720947,25.191633253860473,6.313726507720947,24.605833253860474C6.313726507720947,24.020133253860475,6.805336507720947,23.545233253860474,7.411766507720947,23.545233253860474L8.818976507720947,23.545233253860474L10.200226507720947,19.584733253860474Q8.627036507720948,18.907833253860474,7.400326507720948,17.722933253860475Q6.109096507720947,16.475733253860476,5.400574507720947,14.857733253860474Q4.666666507720947,13.181733253860473,4.666666507720947,11.348373253860474ZM13.935636507720947,20.363233253860475L12.246056507720947,20.363233253860475L11.136396507720947,23.545033253860474L16.85956650772095,23.545033253860474L15.740766507720947,20.363233253860475L14.064366507720948,20.363233253860475Q14.032206507720947,20.363433253860475,13.999996507720947,20.363433253860475Q13.967796507720948,20.363433253860475,13.935636507720947,20.363233253860475ZM9.607856507720946,11.348213253860473Q9.607856507720946,9.590963253860473,10.894296507720949,8.348403253860473Q12.180726507720948,7.105843253860473,14.000016507720947,7.105843253860473Q15.819266507720947,7.105843253860473,17.105766507720947,8.348403253860473Q18.392166507720948,9.590963253860473,18.392166507720948,11.348213253860473Q18.392166507720948,13.105433253860474,17.105766507720947,14.348033253860473Q15.819266507720947,15.590633253860474,14.000016507720947,15.590633253860474Q12.180726507720948,15.590633253860474,10.894296507720949,14.348033253860473Q9.607856507720946,13.105433253860474,9.607856507720946,11.348213253860473Z" fill-rule="evenodd" fill="#2B3D56" fill-opacity="1"/></g></g></svg>